<svg xmlns="http://www.w3.org/2000/svg" version="1.1" xmlns:xlink="http://www.w3.org/1999/xlink" xmlns:svgjs="http://svgjs.dev/svgjs" width="1000" height="1000" viewBox="0 0 1000 1000"><rect width="1000" height="1000" fill="#000000"></rect><g transform="matrix(0.7,0,0,0.7,149.57575757575756,282.1265587044535)"><svg viewBox="0 0 396 247" data-background-color="#ffffff" preserveAspectRatio="xMidYMid meet" height="623" width="1000" xmlns="http://www.w3.org/2000/svg" xmlns:xlink="http://www.w3.org/1999/xlink"><g id="tight-bounds" transform="matrix(1,0,0,1,0.2400000000000091,-0.09999999999999432)"><svg viewBox="0 0 395.52 247.2" height="247.2" width="395.52"><g><svg></svg></g><g><svg viewBox="0 0 395.52 247.2" height="247.2" width="395.52"><g transform="matrix(1,0,0,1,75.69139061371841,47.215199999999996)"><svg viewBox="0 0 244.13721877256316 152.7696" height="152.7696" width="244.13721877256316"><g><svg viewBox="0 0 244.13721877256316 152.7696" height="152.7696" width="244.13721877256316"><g><svg viewBox="0 0 244.13721877256316 152.7696" height="152.7696" width="244.13721877256316"><g><svg viewBox="0 0 244.13721877256316 152.7696" height="152.7696" width="244.13721877256316"><g><svg viewBox="0 0 244.13721877256316 152.7696" height="152.7696" width="244.13721877256316"><g><svg viewBox="0 0 244.13721877256316 152.7696" height="152.7696" width="244.13721877256316"><g transform="matrix(1,0,0,1,0,0)"><svg width="244.13721877256316" viewBox="1.5499999523162842 -34.349998474121094 66.39999389648438 41.54999923706055" height="152.7696" data-palette-color="#ed1703"><path d="M11.65-14.25L11.65-14.25 11.1-12.55 21.9-12.55 21.35-14.25Q19.45-20.15 18.25-24.03 17.05-27.9 16.8-28.85L16.8-28.85 16.55-29.8Q16-27.45 11.65-14.25ZM9.7-8.25L7 0 1.55 0 13.2-33.7 19.95-33.7 31.45 0 25.95 0 23.3-8.25 9.7-8.25ZM66.25-17L66.25-17Q66.25-11.35 64.05-7.2 61.85-3.05 57.85-1.1L57.85-1.1 67.95 4.95 62.25 7.2 52.4 0.35Q51.85 0.4 50.8 0.4L50.8 0.4Q43.75 0.4 39.52-4.35 35.3-9.1 35.3-17L35.3-17Q35.3-24.85 39.5-29.6 43.7-34.35 50.75-34.35L50.75-34.35Q57.95-34.35 62.1-29.63 66.25-24.9 66.25-17ZM43.37-26.18Q40.7-22.8 40.7-17 40.7-11.2 43.45-7.8 46.2-4.4 50.8-4.4L50.8-4.4Q55.55-4.4 58.2-7.75 60.85-11.1 60.85-17L60.85-17Q60.85-22.85 58.17-26.2 55.5-29.55 50.75-29.55L50.75-29.55Q46.05-29.55 43.37-26.18Z" opacity="1" transform="matrix(1,0,0,1,0,0)" fill="#ffffff" class="undefined-text-0" data-fill-palette-color="primary" id="text-0"></path></svg></g></svg></g></svg></g></svg></g></svg></g></svg></g></svg></g><g><path d="M245.669 0c68.262 0 123.6 55.338 123.6 123.6 0 68.262-55.338 123.6-123.6 123.6-30.402 0-58.24-10.976-79.769-29.183l11.148 0c19.26 14.022 42.974 22.294 68.621 22.295 64.458 0 116.712-52.254 116.711-116.712 0-64.458-52.254-116.712-116.711-116.712-25.647 0-49.361 8.272-68.621 22.295l-11.148 0c21.528-18.206 49.366-29.183 79.769-29.183z" fill="#ed1703" stroke="transparent" data-fill-palette-color="tertiary"></path></g></svg></g><defs></defs></svg><rect width="395.52" height="247.2" fill="none" stroke="none" visibility="hidden"></rect></g></svg></g></svg>